<mxfile host="app.diagrams.net" modified="2022-05-27T05:57:35.061Z" agent="5.0 (Windows NT 10.0; Win64; x64) AppleWebKit/537.36 (KHTML, like Gecko) Chrome/101.0.4951.67 Safari/537.36" etag="PK5ylCZBfhyYm-tarV1c" version="18.1.3" type="github">
  <diagram id="ECX2ROh67WUJRAIc1jBb" name="Page-1">
    <mxGraphModel dx="1020" dy="555" grid="1" gridSize="10" guides="1" tooltips="1" connect="1" arrows="1" fold="1" page="1" pageScale="1" pageWidth="827" pageHeight="1169" background="#F1FAEE" math="0" shadow="0">
      <root>
        <mxCell id="0" />
        <mxCell id="1" parent="0" />
        <mxCell id="v4iahEI-V5FUfUINhJrD-2" value="" style="swimlane;startSize=0;rounded=0;shadow=0;glass=0;sketch=0;labelBackgroundColor=none;fillColor=#A8DADC;strokeColor=#457B9D;fontColor=#1D3557;" vertex="1" parent="1">
          <mxGeometry x="310" y="40" width="380" height="360" as="geometry" />
        </mxCell>
        <mxCell id="v4iahEI-V5FUfUINhJrD-5" value="CONSULTER PRODUIT" style="ellipse;whiteSpace=wrap;html=1;rounded=0;labelBorderColor=none;sketch=0;fontFamily=Times New Roman;fontSize=14;strokeColor=#b85450;strokeWidth=3;fillColor=#f8cecc;fontStyle=1" vertex="1" parent="v4iahEI-V5FUfUINhJrD-2">
          <mxGeometry x="120" y="54" width="140" height="70" as="geometry" />
        </mxCell>
        <mxCell id="v4iahEI-V5FUfUINhJrD-6" value="RECHERCHER PRODUIT" style="ellipse;whiteSpace=wrap;html=1;rounded=0;labelBorderColor=none;sketch=0;fontFamily=Times New Roman;fontSize=14;strokeColor=#b85450;strokeWidth=3;fillColor=#f8cecc;fontStyle=1" vertex="1" parent="v4iahEI-V5FUfUINhJrD-2">
          <mxGeometry x="120" y="156" width="140" height="70" as="geometry" />
        </mxCell>
        <mxCell id="v4iahEI-V5FUfUINhJrD-7" value="INSCRIPTION" style="ellipse;whiteSpace=wrap;html=1;rounded=0;labelBorderColor=none;sketch=0;fontFamily=Times New Roman;fontSize=14;strokeColor=#b85450;strokeWidth=3;fillColor=#f8cecc;fontStyle=1" vertex="1" parent="v4iahEI-V5FUfUINhJrD-2">
          <mxGeometry x="120" y="250" width="140" height="70" as="geometry" />
        </mxCell>
        <mxCell id="v4iahEI-V5FUfUINhJrD-8" style="edgeStyle=orthogonalEdgeStyle;curved=0;rounded=1;sketch=0;orthogonalLoop=1;jettySize=auto;html=1;entryX=0.011;entryY=0.321;entryDx=0;entryDy=0;entryPerimeter=0;fontFamily=Times New Roman;fontSize=14;fontColor=#1D3557;strokeColor=#457B9D;fillColor=#A8DADC;strokeWidth=2;" edge="1" parent="1" source="v4iahEI-V5FUfUINhJrD-3" target="v4iahEI-V5FUfUINhJrD-5">
          <mxGeometry relative="1" as="geometry" />
        </mxCell>
        <mxCell id="v4iahEI-V5FUfUINhJrD-9" style="edgeStyle=orthogonalEdgeStyle;curved=0;rounded=1;sketch=0;orthogonalLoop=1;jettySize=auto;html=1;entryX=0;entryY=0.5;entryDx=0;entryDy=0;fontFamily=Times New Roman;fontSize=14;fontColor=#1D3557;strokeColor=#457B9D;strokeWidth=2;fillColor=#A8DADC;" edge="1" parent="1" source="v4iahEI-V5FUfUINhJrD-3" target="v4iahEI-V5FUfUINhJrD-6">
          <mxGeometry relative="1" as="geometry" />
        </mxCell>
        <mxCell id="v4iahEI-V5FUfUINhJrD-10" style="edgeStyle=orthogonalEdgeStyle;curved=0;rounded=1;sketch=0;orthogonalLoop=1;jettySize=auto;html=1;entryX=0;entryY=0.5;entryDx=0;entryDy=0;fontFamily=Times New Roman;fontSize=14;fontColor=#1D3557;strokeColor=#457B9D;strokeWidth=2;fillColor=#A8DADC;" edge="1" parent="1" source="v4iahEI-V5FUfUINhJrD-3" target="v4iahEI-V5FUfUINhJrD-7">
          <mxGeometry relative="1" as="geometry" />
        </mxCell>
        <mxCell id="v4iahEI-V5FUfUINhJrD-3" value="VISITEUR" style="shape=umlActor;verticalLabelPosition=bottom;verticalAlign=top;html=1;rounded=0;sketch=0;fontColor=#1D3557;strokeColor=#457B9D;fillColor=#A8DADC;strokeWidth=3;fontFamily=Times New Roman;fontSize=16;fontStyle=1;labelBorderColor=none;" vertex="1" parent="1">
          <mxGeometry x="175" y="144" width="50" height="88" as="geometry" />
        </mxCell>
      </root>
    </mxGraphModel>
  </diagram>
</mxfile>
